<?xml version="1.0" encoding="UTF-8"?>
<svg width="32" height="32" viewBox="0 0 32 32" xmlns="http://www.w3.org/2000/svg">
  <defs>
    <radialGradient id="globeGradientSmall" cx="50%" cy="30%" r="70%">
      <stop offset="0%" style="stop-color:#87CEEB;stop-opacity:1" />
      <stop offset="50%" style="stop-color:#4682B4;stop-opacity:1" />
      <stop offset="100%" style="stop-color:#1E90FF;stop-opacity:1" />
    </radialGradient>
    <linearGradient id="infinityGradientSmall" x1="0%" y1="0%" x2="100%" y2="0%">
      <stop offset="0%" style="stop-color:#FFD700;stop-opacity:1" />
      <stop offset="50%" style="stop-color:#FF8C00;stop-opacity:1" />
      <stop offset="100%" style="stop-color:#B8860B;stop-opacity:1" />
    </linearGradient>
  </defs>
  
  <!-- Globe background -->
  <circle cx="16" cy="12" r="10" fill="url(#globeGradientSmall)" stroke="#1E90FF" stroke-width="1"/>
  
  <!-- Grid lines on globe -->
  <g stroke="#FFFFFF" stroke-width="0.5" fill="none" opacity="0.4">
    <ellipse cx="16" cy="12" rx="10" ry="3"/>
    <ellipse cx="16" cy="12" rx="8" ry="5"/>
    <path d="M 8 12 Q 16 8 24 12 Q 16 16 8 12"/>
  </g>
  
  <!-- Simplified dove -->
  <g fill="#FFFFFF">
    <circle cx="16" cy="6" r="1.5"/>
  </g>
  
  <!-- Simplified hands -->
  <g fill="#8B4513">
    <ellipse cx="6" cy="20" rx="3" ry="5"/>
    <ellipse cx="26" cy="20" rx="3" ry="5"/>
  </g>
  
  <!-- Infinity symbol -->
  <g fill="url(#infinityGradientSmall)" transform="translate(16, 26)">
    <path d="M -4 0 Q -4 -2 -2 -2 Q 0 -2 0 0 Q 0 2 2 2 Q 4 2 4 0 Q 4 -2 2 -2 Q 0 -2 0 0 Q 0 2 -2 2 Q -4 2 -4 0" stroke="#B8860B" stroke-width="0.5"/>
  </g>
</svg>
